<svg xmlns="http://www.w3.org/2000/svg" viewBox="0 0 281.16 141.37"><defs><style>.cls-1{fill:#ce814f;}</style></defs><g id="Layer_2" data-name="Layer 2"><g id="Layer_1-2" data-name="Layer 1"><g id="Layer_2-2" data-name="Layer 2"><g id="OBJECTS"><path class="cls-1" d="M0,116.94c6.18,0,9.63-.16,14.05-.16,10.61,0,16.89,4.52,16.89,12.13s-6.54,12.33-17.6,12.33c-4.17,0-8.75-.06-13.34-.06C.36,135.58.36,122.54,0,116.94Zm5.79,20.43c1.89.07,4.65.26,7.55.26,7.48,0,11.94-3.22,11.94-8.72s-4.4-8.55-11.75-8.55c-2.14,0-4.88.16-7.77.13C5.66,126.18,5.69,131.65,5.79,137.37Z"/><path class="cls-1" d="M55.93,141.18c-.62-1.63-1.24-3.35-1.92-5.08-4.2-.13-10-.13-14.22,0-.75,1.79-1.43,3.55-2.08,5.11H31.33c3.94-8.07,7.58-16.17,11-24.24a39.32,39.32,0,0,0,9.2,0C55,125,58.66,133.11,62.59,141.18Zm-3.26-8.43a122.23,122.23,0,0,0-5.85-12.81c-1.34,2.47-3.52,7.61-5.66,12.81,3.48.1,8,.1,11.51,0Z"/><path class="cls-1" d="M70.24,141.18c.33-5.08.36-13.89.2-20.56a80,80,0,0,0-11.68.88,13.43,13.43,0,0,0,0-4.56c10.77.26,18.41.26,29.15,0a13.43,13.43,0,0,0,0,4.56,81.1,81.1,0,0,0-11.75-.88c-.16,6.7-.06,15.48.26,20.56Z"/><path class="cls-1" d="M108.66,141.18c-.62-1.63-1.23-3.35-1.92-5.08-4.19-.13-10-.13-14.21,0-.75,1.79-1.43,3.55-2.09,5.11H84.07c3.94-8.07,7.58-16.17,11-24.24a39.41,39.41,0,0,0,9.21,0c3.42,8.07,7.13,16.17,11.06,24.24Zm-3.25-8.43a122.31,122.31,0,0,0-5.86-12.81c-1.33,2.47-3.51,7.61-5.66,12.81C97.37,132.85,101.93,132.85,105.41,132.75Z"/><path class="cls-1" d="M118.46,116.88c4.39,0,8.52-.1,14.7-.1,7.68,0,11.88,1.79,11.88,6.08,0,3.84-3.42,5.34-7.62,5.5v.42c5.21.13,9.11,1.89,9.11,6,0,5.86-8,6.57-13.86,6.57-6.8,0-9.72-.19-14.21-.19C118.85,135.1,118.85,123,118.46,116.88Zm14.73,10.73c4,0,6-1.17,6-3.58,0-2.56-2.15-3.44-6-3.44s-7.12,0-8.94,0c-.07,2.15-.1,4.46-.07,6.93C127,127.58,130,127.61,133.19,127.61Zm-8.88,9.83c2.57.06,4.56.13,8.66.13,5.85,0,7.32-1.73,7.32-3.65,0-1.72-1.47-3.15-7.1-3.15-3.15,0-6.24,0-9,0,0,2.21.07,4.59.13,6.64Z"/><path class="cls-1" d="M150.67,141.18c.39-6.08.39-18.19,0-24.24,5.59.1,9-.09,14.21-.09,9.08,0,13.34,2.24,13.34,7.09,0,6.18-7.35,7.22-10.7,7.22v.42c6.44,1.11,10,6,11.71,9.6h-7.71c-1.11-6.12-4.17-8.52-10.87-9-1.56-.1-2.86-.13-4.23-.13.07,4.42.17,6.6.36,9.14Zm13.07-12.3c5.53,0,8.53-1.17,8.53-4.36,0-3-2.93-4-7.55-4-3.12,0-6.28.1-8.23.1-.07,2.5-.1,5.14-.1,8C158.64,128.72,161.24,128.88,163.74,128.88Z"/><path class="cls-1" d="M205.52,141.18c-.62-1.63-1.24-3.35-1.92-5.08-4.2-.13-10-.13-14.22,0-.75,1.79-1.43,3.55-2.08,5.11h-6.38c3.94-8.07,7.58-16.17,11-24.24a39.41,39.41,0,0,0,9.21,0c3.41,8.07,7.12,16.17,11.06,24.24Zm-3.26-8.43a122.23,122.23,0,0,0-5.85-12.81c-1.33,2.47-3.51,7.61-5.66,12.81C194.23,132.85,198.78,132.85,202.26,132.75Z"/><path class="cls-1" d="M236.82,141.18c-5.11-6.67-10.41-13.27-15.94-19.71-.1,6.53,0,13.17.29,19.71h-5.86c.26-8.07.26-16.17,0-24.24a36.29,36.29,0,0,0,8.07,0q7.51,10.11,15.71,19.91c.1-6.63,0-13.3-.29-19.91a18.14,18.14,0,0,0,5.79,0c-.23,8.07-.19,16.17.1,24.24Z"/><path class="cls-1" d="M250.22,116.94c6.18,0,9.63-.16,14.06-.16,10.6,0,16.88,4.52,16.88,12.13s-6.54,12.33-17.6,12.33c-4.16,0-8.75-.06-13.34-.06C250.58,135.58,250.58,122.54,250.22,116.94ZM256,137.37c1.89.07,4.65.26,7.55.26,7.48,0,11.94-3.22,11.94-8.72s-4.39-8.55-11.74-8.55c-2.15,0-4.88.16-7.78.13-.1,5.69-.06,11.16,0,16.88Z"/><path class="cls-1" d="M113.35,7.74a5.59,5.59,0,0,0,1.55,2.92h0a5.64,5.64,0,0,0,8,0h0a7.1,7.1,0,0,0,.65-.8l.16-.26.19-.3h0a5.61,5.61,0,0,0-7.6-7.6s0,0,0,0a3.28,3.28,0,0,0-.31.2l-.26.16a5.61,5.61,0,0,0-2.34,5.71Z"/><path class="cls-1" d="M127.12,22.88l17.61,17.61a5.61,5.61,0,0,0,7.93,0,4.44,4.44,0,0,0,.5-.56h0a5.64,5.64,0,0,0-.42-7.47L135.1,14.9a5.65,5.65,0,0,0-5.95-1.29h0l-.07,0-.24.1a5.52,5.52,0,0,0-.8.42l-.13.09a7.19,7.19,0,0,0-.8.66,5.64,5.64,0,0,0,0,8Z"/><path class="cls-1" d="M149.63,18.86a5.63,5.63,0,0,0,8,0h0a5.46,5.46,0,0,0,.65-.79c.07-.1.12-.2.18-.3s.14-.21.2-.32h0a5.63,5.63,0,0,0-1-6.58l-9.25-9.24a5.63,5.63,0,0,0-6.58-1l0,0c-.11.05-.21.13-.32.19l-.3.19a5.54,5.54,0,0,0-.8.65h0a5.65,5.65,0,0,0,0,8h0Z"/><path class="cls-1" d="M187.4,50h0c-.05-.11-.13-.21-.19-.32s-.12-.2-.19-.3a6.15,6.15,0,0,0-.65-.8,5.65,5.65,0,0,0-8,0h0l-9.24,9.25a5.63,5.63,0,0,0,0,8h0a5.46,5.46,0,0,0,.79.65c.1.07.2.12.3.18a3.62,3.62,0,0,0,.33.2l0,0a5.65,5.65,0,0,0,6.58-1l9.24-9.25A5.6,5.6,0,0,0,187.4,50Z"/><path class="cls-1" d="M146,58a5.71,5.71,0,0,0,1.55,2.91h0c.17.16.34.32.52.46,0,0,0,0,0,0a5.63,5.63,0,0,0,7.47-.42l17.61-17.61a5.61,5.61,0,0,0,1.29-5.94h0l0-.07-.1-.24a6.09,6.09,0,0,0-.42-.8l-.09-.12a5.08,5.08,0,0,0-.66-.81h0a5.65,5.65,0,0,0-8,0h0L147.55,52.91A5.64,5.64,0,0,0,146,58Z"/><path class="cls-1" d="M177.38,31.06h0a6.15,6.15,0,0,0,.8.65l.26.16.3.19s0,0,0,0a5.61,5.61,0,0,0,6.63-1h0a5.63,5.63,0,0,0,1-6.64l0,0c-.06-.11-.13-.21-.19-.31l-.16-.26a5.53,5.53,0,0,0-.66-.79h0a5.64,5.64,0,0,0-8,8Z"/><path class="cls-1" d="M165,85.57a5.63,5.63,0,0,0-8,0h0a5.46,5.46,0,0,0-.65.79l-.16.26c-.06.1-.13.2-.19.31l0,0a5.6,5.6,0,0,0,7.6,7.6s0,0,0,0l.31-.19.26-.16a5.46,5.46,0,0,0,.79-.65h0a5.63,5.63,0,0,0,0-8Z"/><path class="cls-1" d="M152.74,73.34,135.13,55.73a5.65,5.65,0,0,0-8,0h0c-.16.17-.31.34-.46.53l0,0a5.64,5.64,0,0,0,.42,7.47l17.61,17.61a5.63,5.63,0,0,0,6,1.29h0l.07,0,.24-.1a6.09,6.09,0,0,0,.8-.42l.12-.09a5.08,5.08,0,0,0,.81-.66h0a5.64,5.64,0,0,0,0-8Z"/><path class="cls-1" d="M130.23,77.36a5.6,5.6,0,0,0-7.91-.07,5,5,0,0,0-.72.87,2.82,2.82,0,0,0-.18.29c-.07.11-.14.22-.2.33l0,0a5.63,5.63,0,0,0,1,6.58l9.25,9.25a5.61,5.61,0,0,0,6.57,1,.08.08,0,0,1,0,0l.32-.2.3-.18a6.3,6.3,0,0,0,.8-.65h0a5.65,5.65,0,0,0,0-8h0Z"/><path class="cls-1" d="M104,68.08a5.52,5.52,0,0,0-1.55-2.91h0a5.53,5.53,0,0,0-.79-.66l-.26-.16-.31-.19,0,0a5.61,5.61,0,0,0-7.6,7.6h0l.19.3.16.26a6.21,6.21,0,0,0,.65.79h0A5.64,5.64,0,0,0,104,68.08Z"/><path class="cls-1" d="M133.55,41.45a5.6,5.6,0,0,0-1.76-6.57.08.08,0,0,0,0,0,5.63,5.63,0,0,0-7.47.41L106.72,52.94a5.63,5.63,0,0,0-1.29,6h0l0,.07.1.24a5.52,5.52,0,0,0,.42.8l.09.13a4.61,4.61,0,0,0,.66.8h0a5.63,5.63,0,0,0,8,0h0l17.61-17.61A5.83,5.83,0,0,0,133.55,41.45Z"/><path class="cls-1" d="M92.62,46.56a3,3,0,0,0,.19.3,5,5,0,0,0,.65.8h0a5.64,5.64,0,0,0,8,0h0l9.25-9.25a5.64,5.64,0,0,0,0-8h0a5.46,5.46,0,0,0-.79-.65l-.3-.18-.33-.2s0,0,0,0a5.63,5.63,0,0,0-6.58,1l-9.24,9.25a5.61,5.61,0,0,0-1,6.58l0,0C92.48,46.35,92.56,46.46,92.62,46.56Z"/></g></g></g></g></svg>